<svg width="154" height="48" viewBox="0 0 154 48" fill="none" xmlns="http://www.w3.org/2000/svg">
    <g filter="url(#filter0_d)">
    <rect x="4" y="40" width="40" height="146" rx="10" transform="rotate(-90 4 40)" fill="url(#paint0_linear)"/>
    <path d="M64.4268 20.0708H57.8457V27H55.0044V10.6484H65.3926V12.9395H57.8457V17.8022H64.4268V20.0708ZM70.2891 27H67.5601V14.8486H70.2891V27ZM67.3916 11.6929C67.3916 11.2736 67.5226 10.9255 67.7847 10.6484C68.0542 10.3714 68.436 10.2329 68.9302 10.2329C69.4243 10.2329 69.8062 10.3714 70.0757 10.6484C70.3452 10.9255 70.48 11.2736 70.48 11.6929C70.48 12.1047 70.3452 12.4491 70.0757 12.7261C69.8062 12.9956 69.4243 13.1304 68.9302 13.1304C68.436 13.1304 68.0542 12.9956 67.7847 12.7261C67.5226 12.4491 67.3916 12.1047 67.3916 11.6929ZM75.8032 14.8486L75.8818 16.2524C76.7803 15.1668 77.9595 14.624 79.4194 14.624C81.95 14.624 83.2378 16.0728 83.2827 18.9702V27H80.5537V19.1274C80.5537 18.3563 80.3853 17.7873 80.0483 17.4204C79.7189 17.0461 79.1761 16.8589 78.4199 16.8589C77.3193 16.8589 76.4995 17.3568 75.9604 18.3525V27H73.2314V14.8486H75.8032ZM85.5625 20.8345C85.5625 18.9627 85.9967 17.4616 86.8652 16.3311C87.7337 15.193 88.8979 14.624 90.3579 14.624C91.6457 14.624 92.6864 15.0732 93.48 15.9717V9.75H96.209V27H93.7383L93.6035 25.7422C92.7874 26.7305 91.6981 27.2246 90.3354 27.2246C88.9129 27.2246 87.7599 26.6519 86.8765 25.5063C86.0005 24.3608 85.5625 22.8035 85.5625 20.8345ZM88.2915 21.0703C88.2915 22.3057 88.5273 23.2715 88.999 23.9678C89.4782 24.6566 90.1558 25.001 91.0317 25.001C92.1473 25.001 92.9634 24.5031 93.48 23.5073V18.3188C92.9784 17.3455 92.1698 16.8589 91.0542 16.8589C90.1707 16.8589 89.4894 17.2108 89.0103 17.9146C88.5311 18.6108 88.2915 19.6628 88.2915 21.0703Z" fill="white"/>
    </g>
    <defs>
    <filter id="filter0_d" x="0" y="0" width="154" height="48" filterUnits="userSpaceOnUse" color-interpolation-filters="sRGB">
    <feFlood flood-opacity="0" result="BackgroundImageFix"/>
    <feColorMatrix in="SourceAlpha" type="matrix" values="0 0 0 0 0 0 0 0 0 0 0 0 0 0 0 0 0 0 127 0" result="hardAlpha"/>
    <feOffset dy="4"/>
    <feGaussianBlur stdDeviation="2"/>
    <feColorMatrix type="matrix" values="0 0 0 0 0 0 0 0 0 0 0 0 0 0 0 0 0 0 0.25 0"/>
    <feBlend mode="normal" in2="BackgroundImageFix" result="effect1_dropShadow"/>
    <feBlend mode="normal" in="SourceGraphic" in2="effect1_dropShadow" result="shape"/>
    </filter>
    <linearGradient id="paint0_linear" x1="24" y1="40" x2="24" y2="186" gradientUnits="userSpaceOnUse">
    <stop stop-color="#8944FA"/>
    <stop offset="0.473958" stop-color="#4B5DFC"/>
    <stop offset="0.661458" stop-color="#3086FD"/>
    <stop offset="1" stop-color="#00D1FF"/>
    </linearGradient>
    </defs>
</svg>
